<?xml version="1.0" standalone="no"?>
<!DOCTYPE svg PUBLIC "-//W3C//DTD SVG 20010904//EN"
 "http://www.w3.org/TR/2001/REC-SVG-20010904/DTD/svg10.dtd">
<svg version="1.0" xmlns="http://www.w3.org/2000/svg"
 width="770.000000pt" height="770.000000pt" viewBox="0 0 770.000000 770.000000"
 preserveAspectRatio="xMidYMid meet">
<metadata>
Created by potrace 1.16, written by Peter Selinger 2001-2019
</metadata>
<g transform="translate(0.000000,770.000000) scale(0.100000,-0.100000)"
fill="#000000" stroke="none">
<path d="M0 3855 l0 -3845 1553 1 c853 0 1561 4 1571 8 18 7 18 8 3 14 -9 3
-17 2 -17 -3 0 -6 -4 -10 -10 -10 -5 0 -7 7 -4 15 4 10 13 13 25 10 11 -4 19
-2 19 4 0 6 7 11 16 11 8 0 12 5 9 10 -3 6 -1 10 4 10 6 0 11 -7 11 -15 0 -8
8 -15 18 -15 14 0 15 2 2 10 -12 8 -10 10 10 10 20 0 22 2 10 10 -13 8 -12 10
3 10 10 0 15 4 12 10 -3 5 -2 10 4 10 5 0 11 -6 14 -12 3 -10 8 -10 17 -2 9 9
6 16 -12 29 l-23 17 24 -7 c17 -5 22 -4 16 5 -5 9 -4 11 4 6 6 -4 9 -11 6 -16
-6 -10 7 -20 34 -25 14 -3 18 1 14 12 -5 12 -7 12 -14 1 -9 -13 -10 -11 -14
31 -2 22 -1 23 10 8 14 -20 29 -23 20 -4 -4 6 1 3 11 -8 16 -20 16 -20 12 1
-3 13 0 21 8 21 8 0 14 -4 14 -8 0 -4 9 -6 19 -4 11 2 22 -3 25 -11 3 -8 11
-14 18 -13 10 0 10 2 1 6 -7 2 -13 9 -13 14 0 6 4 8 9 5 5 -3 11 1 14 9 4 9 1
12 -7 9 -7 -3 -21 8 -31 23 -16 24 -16 26 -2 14 14 -11 18 -11 22 1 7 18 34
19 60 2 11 -8 14 -14 8 -14 -7 0 -15 5 -18 10 -5 8 -11 7 -20 0 -11 -9 -12
-16 -2 -31 10 -16 13 -16 20 -4 11 21 28 19 20 -2 -4 -10 -2 -14 5 -9 6 3 9
25 8 48 l-3 41 18 -24 c10 -13 21 -20 25 -16 4 4 13 2 21 -4 16 -14 18 2 2 18
-8 8 -5 14 10 23 23 12 45 5 36 -11 -4 -5 -1 -9 6 -9 10 0 10 -3 1 -12 -15
-15 -15 -28 -1 -28 5 0 8 3 5 8 -2 4 2 16 10 27 8 10 14 15 14 11 0 -5 6 -3
14 3 9 7 17 8 20 3 3 -6 20 -7 41 -2 25 6 38 4 46 -6 6 -8 17 -14 23 -14 6 0
5 4 -3 9 -10 6 -10 13 -2 29 9 17 8 21 -7 26 -14 4 -13 5 3 4 42 -1 56 2 50
12 -3 5 -1 10 4 10 6 0 11 -8 11 -17 0 -12 3 -14 11 -6 8 8 18 7 37 -3 26 -13
42 -11 42 7 0 6 -5 7 -12 3 -7 -4 -8 -3 -4 4 12 20 26 13 24 -12 -1 -14 -6
-22 -10 -20 -13 8 -9 -10 6 -31 7 -11 12 -28 10 -38 -1 -9 1 -15 6 -12 9 6 7
31 -3 41 -11 12 -8 21 8 21 8 0 11 -5 8 -10 -4 -6 0 -8 10 -4 10 3 17 2 17 -3
0 -5 8 -6 17 -3 16 6 16 5 4 -10 -7 -9 -10 -17 -5 -17 5 0 2 -5 -6 -10 -12 -7
-10 -9 7 -7 12 0 19 5 17 9 -3 4 0 8 6 8 6 0 9 4 5 9 -3 5 -1 12 4 15 5 4 12
-2 14 -11 4 -17 5 -17 6 0 0 9 5 17 10 17 6 0 9 -9 8 -20 -1 -11 -5 -20 -9
-20 -4 0 -7 -10 -7 -22 1 -20 2 -20 6 -4 4 15 7 16 14 5 6 -10 9 -7 9 13 0 15
4 30 10 33 6 3 7 -1 4 -9 -4 -11 0 -16 14 -16 15 0 19 -5 15 -19 -4 -15 -1
-19 14 -15 11 3 25 -2 32 -10 8 -9 25 -16 40 -16 21 0 23 2 11 11 -13 9 -13
10 0 6 8 -2 17 -12 19 -22 2 -13 -1 -16 -12 -12 -9 3 -17 0 -20 -7 -3 -8 5
-11 24 -10 16 1 29 -2 29 -7 0 -5 -5 -9 -12 -9 -6 0 -8 -3 -5 -6 4 -4 14 -1
23 7 20 16 77 21 67 6 -4 -7 1 -8 13 -3 10 4 16 4 12 1 -3 -4 3 -16 14 -27 11
-11 17 -26 14 -34 -3 -8 1 -14 9 -14 8 0 15 5 15 10 0 6 5 10 11 10 5 0 7 -4
4 -10 -4 -6 571 -10 1620 -10 l1625 0 0 3845 0 3845 -1449 0 c-1439 0 -1449 0
-1454 -20 -4 -17 -9 -19 -30 -11 -22 8 -24 7 -20 -10 3 -11 0 -19 -6 -19 -7 0
-10 4 -7 8 2 4 -6 9 -20 10 -13 1 -24 -3 -24 -8 0 -5 7 -7 15 -4 8 4 15 1 15
-5 0 -6 -5 -11 -11 -11 -5 0 -8 -4 -5 -9 12 -18 -28 -22 -42 -4 -12 16 -13 14
-12 -17 3 -50 3 -50 -25 -40 -18 7 -24 6 -22 -3 1 -7 7 -15 12 -19 6 -4 2 -8
-8 -8 -11 0 -15 -5 -11 -11 4 -7 1 -10 -7 -7 -8 3 -13 10 -12 15 1 5 -5 10
-13 10 -8 0 -14 -10 -14 -23 0 -13 -4 -25 -9 -29 -6 -3 -8 4 -6 15 3 14 0 20
-8 17 -7 -2 -12 -11 -11 -19 1 -9 -10 -15 -29 -16 -17 -2 -37 -10 -44 -20 -14
-16 -14 -16 -9 0 3 10 2 20 -3 22 -11 7 -10 -27 2 -42 7 -9 6 -16 -3 -25 -10
-10 -11 -9 -5 2 5 9 4 12 -3 7 -7 -4 -12 -15 -12 -24 0 -14 -2 -14 -9 -3 -7
11 -10 10 -14 -5 -4 -17 -5 -17 -6 2 0 12 6 24 14 28 8 3 14 13 14 23 -1 16
-2 16 -6 1 -3 -12 -12 -15 -33 -12 -15 3 -31 1 -34 -4 -3 -6 2 -9 11 -8 9 0
18 -6 20 -14 3 -9 1 -11 -4 -5 -10 13 -53 15 -53 2 0 -5 -10 -2 -23 6 -23 15
-23 14 -22 -19 1 -19 -2 -34 -8 -34 -5 0 -7 7 -3 15 3 8 0 16 -7 17 -7 0 -16
2 -22 2 -5 1 -15 4 -20 8 -13 8 -47 -16 -37 -27 4 -4 -3 -2 -15 4 -25 13 -31
24 -9 15 8 -3 17 -1 21 5 7 12 -29 10 -41 -2 -4 -4 -12 -7 -18 -7 -6 0 -4 4 4
10 8 5 12 12 8 15 -3 3 -13 -1 -22 -10 -15 -15 -16 -15 -17 7 0 13 -3 17 -6
11 -2 -7 -16 -13 -30 -13 -18 0 -24 4 -20 14 4 10 1 13 -8 10 -10 -4 -12 1 -9
18 3 18 2 17 -7 -4 -14 -36 -26 -36 -23 0 1 24 -2 28 -28 30 -17 1 -27 -2 -24
-7 13 -21 -14 -20 -28 0 -13 19 -18 20 -31 9 -11 -9 -15 -9 -15 -1 0 7 -6 18
-12 25 -11 11 -15 11 -26 -3 -7 -9 -11 -10 -7 -3 3 6 1 12 -5 12 -7 0 -10 6
-7 14 3 8 -1 20 -9 26 -11 10 -14 9 -15 -6 0 -16 -2 -15 -10 5 -6 15 -15 21
-24 17 -8 -3 -15 0 -15 6 0 7 -4 7 -13 -1 -10 -8 -19 -7 -33 5 -18 15 -18 15
4 10 17 -3 22 -1 18 9 -3 8 -2 15 2 17 5 2 0 11 -9 20 -15 14 -19 15 -36 2
-17 -14 -17 -15 5 -9 17 5 22 2 21 -12 0 -10 -3 -13 -5 -7 -7 16 -44 5 -38
-11 3 -7 1 -16 -4 -19 -5 -3 -8 8 -6 24 2 17 -1 30 -6 30 -13 0 -45 32 -53 53
-7 19 -57 24 -57 6 0 -8 -5 -8 -15 1 -12 10 -18 10 -30 0 -10 -9 -15 -9 -15
-1 0 8 -456 11 -1725 11 l-1725 0 0 -3845z m3556 3819 c-1 -8 -6 -17 -11 -21
-4 -4 -5 -2 -1 5 4 6 2 12 -3 12 -6 0 -11 4 -11 8 0 5 6 9 14 9 7 0 13 -6 12
-13z m1269 -14 c3 -5 1 -10 -4 -10 -6 0 -11 5 -11 10 0 6 2 10 4 10 3 0 8 -4
11 -10z m-1238 -16 c-3 -3 -12 -4 -19 -1 -8 3 -5 6 6 6 11 1 17 -2 13 -5z
m1116 -61 c-7 -2 -19 -2 -25 0 -7 3 -2 5 12 5 14 0 19 -2 13 -5z m-746 -140
c-1 -14 -9 -28 -17 -30 -13 -4 -13 -3 -1 5 11 8 11 11 -4 13 -18 4 -18 5 -1
22 23 23 25 22 23 -10z m-57 3 c0 -2 -8 -10 -17 -17 -16 -13 -17 -12 -4 4 13
16 21 21 21 13z m225 -76 c3 -5 1 -10 -4 -10 -6 0 -11 5 -11 10 0 6 2 10 4 10
3 0 8 -4 11 -10z m105 -17 c0 -7 -4 -13 -9 -13 -5 0 -11 6 -14 13 -3 8 1 14 9
14 8 0 14 -6 14 -14z m-596 -7070 c2 -10 11 -17 20 -17 13 2 14 -1 5 -12 -15
-18 -28 -6 -35 32 -3 16 -2 26 1 22 4 -3 8 -14 9 -25z m73 9 c-1 -4 2 -7 6 -7
4 0 12 -7 17 -15 8 -13 10 -12 10 3 0 10 7 17 18 16 9 0 12 -3 5 -5 -7 -3 -9
-12 -6 -21 5 -13 1 -15 -20 -9 -18 4 -27 2 -27 -5 0 -9 -3 -9 -14 0 -18 15
-18 61 0 54 7 -3 12 -8 11 -11z m478 -72 c3 -6 -1 -7 -9 -4 -18 7 -21 14 -7
14 6 0 13 -4 16 -10z m-785 -30 c0 -5 -4 -10 -10 -10 -5 0 -10 5 -10 10 0 6 5
10 10 10 6 0 10 -4 10 -10z m831 -25 c5 4 6 -1 3 -9 -3 -9 -9 -16 -13 -16 -14
0 -20 12 -13 28 4 10 7 12 10 4 2 -7 8 -10 13 -7z m219 -111 c0 -8 -19 -13
-24 -6 -3 5 1 9 9 9 8 0 15 -2 15 -3z"/>
<path d="M4770 7690 c0 -5 5 -10 11 -10 5 0 7 5 4 10 -3 6 -8 10 -11 10 -2 0
-4 -4 -4 -10z"/>
<path d="M3600 7674 c0 -8 5 -12 10 -9 6 4 8 11 5 16 -9 14 -15 11 -15 -7z"/>
<path d="M4609 7593 c-13 -16 -12 -17 4 -4 16 13 21 21 13 21 -2 0 -10 -8 -17
-17z"/>
<path d="M3804 7540 c0 -13 4 -16 10 -10 7 7 7 13 0 20 -6 6 -10 3 -10 -10z"/>
<path d="M4476 7498 c3 -4 9 -8 15 -8 5 0 9 4 9 8 0 5 -7 9 -15 9 -8 0 -12 -4
-9 -9z"/>
<path d="M4284 7457 c0 -13 6 -24 13 -24 9 0 9 6 1 21 -15 30 -16 30 -14 3z"/>
<path d="M4311 7458 c5 -10 12 -18 15 -18 3 0 2 5 -1 10 -6 10 9 15 30 10 6
-1 6 2 2 7 -5 4 -19 8 -32 8 -20 1 -22 -2 -14 -17z"/>
<path d="M4160 7436 c0 -2 7 -7 16 -10 8 -3 12 -2 9 4 -6 10 -25 14 -25 6z"/>
<path d="M3870 280 c-8 -4 -26 -12 -40 -18 -22 -9 -20 -9 15 -7 22 1 47 -3 55
-9 13 -10 13 -9 0 8 -8 11 -14 22 -13 25 2 9 -1 9 -17 1z"/>
<path d="M3915 260 c3 -5 8 -10 11 -10 2 0 4 5 4 10 0 6 -5 10 -11 10 -5 0 -7
-4 -4 -10z"/>
<path d="M3590 240 c-9 -6 -10 -10 -3 -10 6 0 15 5 18 10 8 12 4 12 -15 0z"/>
<path d="M3435 199 c-4 -6 -5 -12 -2 -15 2 -3 7 2 10 11 7 17 1 20 -8 4z"/>
<path d="M3541 180 c14 -31 19 -36 19 -24 0 6 -7 19 -16 30 -14 18 -14 18 -3
-6z"/>
<path d="M4127 161 c-4 -17 -3 -21 5 -13 5 5 8 16 6 23 -3 8 -7 3 -11 -10z"/>
<path d="M4170 139 c0 -5 5 -7 10 -4 6 3 10 8 10 11 0 2 -4 4 -10 4 -5 0 -10
-5 -10 -11z"/>
<path d="M4205 100 c3 -5 8 -10 11 -10 2 0 4 5 4 10 0 6 -5 10 -11 10 -5 0 -7
-4 -4 -10z"/>
<path d="M4340 80 c0 -5 6 -10 13 -10 8 0 7 -3 -3 -10 -8 -5 -12 -11 -10 -14
3 -2 13 1 22 8 15 11 15 13 -3 24 -11 7 -19 8 -19 2z"/>
<path d="M3236 65 c-11 -8 -17 -17 -14 -20 2 -3 13 4 23 15 21 23 18 25 -9 5z"/>
<path d="M4378 40 c-16 -18 -16 -19 1 -17 9 0 18 9 18 19 2 21 3 21 -19 -2z"/>
</g>
</svg>
