<?xml version="1.0" standalone="no"?>
<!DOCTYPE svg PUBLIC "-//W3C//DTD SVG 20010904//EN"
 "http://www.w3.org/TR/2001/REC-SVG-20010904/DTD/svg10.dtd">
<svg version="1.0" xmlns="http://www.w3.org/2000/svg"
 width="535.000000pt" height="535.000000pt" viewBox="0 0 535.000000 535.000000"
 preserveAspectRatio="xMidYMid meet">
<metadata>
Created by potrace 1.16, written by Peter Selinger 2001-2019
</metadata>
<g transform="translate(0.000000,535.000000) scale(0.100000,-0.100000)"
fill="#000000" stroke="none">
<path d="M4324 4896 c-330 -90 -608 -165 -617 -169 -16 -6 -17 -55 -17 -597 0
-324 -2 -590 -6 -590 -8 0 -129 83 -132 91 -2 4 -32 26 -68 49 -35 23 -64 47
-64 52 0 5 -4 6 -10 3 -5 -3 -10 -2 -10 3 0 22 -191 128 -210 117 -5 -3 -10
-2 -10 3 0 6 -32 8 -77 6 -43 -2 -89 -4 -103 -4 -33 0 -90 -19 -90 -31 0 -5
-7 -9 -16 -9 -22 0 -104 -41 -104 -52 0 -4 -6 -8 -13 -8 -13 0 -141 -122 -190
-181 -15 -19 -30 -44 -33 -56 -3 -13 -10 -23 -14 -23 -4 0 -15 -20 -26 -45
-21 -51 -31 -55 -67 -21 -14 13 -28 21 -31 18 -3 -3 -6 -1 -6 5 0 24 -209 141
-230 128 -5 -3 -10 -2 -10 3 0 10 -178 7 -211 -3 -18 -6 -69 22 -94 51 -5 6
-39 31 -75 54 -36 24 -66 47 -68 51 -2 4 -39 31 -83 59 -43 29 -79 57 -79 62
0 5 -4 6 -10 3 -5 -3 -10 -2 -10 3 0 5 -29 29 -65 52 -36 23 -65 47 -65 52 0
5 -4 6 -10 3 -5 -3 -10 -2 -10 3 0 5 -30 29 -66 52 l-65 43 -612 -163 c-337
-90 -620 -170 -629 -178 -17 -14 -18 -95 -18 -1443 l0 -1428 30 -18 c16 -9 30
-20 30 -24 0 -4 30 -26 67 -50 37 -24 74 -51 82 -60 9 -9 45 -35 81 -59 36
-24 70 -49 75 -56 6 -6 39 -31 75 -54 36 -24 69 -50 73 -57 5 -7 12 -11 18 -8
5 4 9 2 9 -3 0 -5 29 -29 65 -52 36 -23 65 -47 65 -52 0 -5 5 -6 10 -3 6 3 10
2 10 -3 0 -5 25 -26 56 -46 43 -29 62 -36 83 -31 204 49 1268 341 1273 349 4
6 8 142 8 303 l0 292 -37 27 c-21 15 -69 51 -108 79 -38 28 -113 82 -165 120
-229 166 -231 168 -228 199 l3 29 219 59 c120 33 225 65 232 73 11 10 14 49
14 157 l0 143 35 -39 c19 -22 35 -44 35 -48 0 -5 4 -7 9 -3 5 3 12 -3 16 -14
3 -11 12 -22 20 -25 8 -3 15 -10 15 -15 0 -6 12 -24 28 -40 39 -43 47 -54 55
-73 3 -10 11 -18 17 -18 5 0 10 -6 10 -14 0 -8 6 -21 14 -28 7 -8 17 -24 20
-36 4 -12 11 -22 16 -22 5 0 11 -14 15 -30 4 -17 11 -28 15 -25 5 3 12 -10 16
-30 3 -19 10 -35 14 -35 4 0 11 -16 14 -35 4 -19 11 -35 15 -35 5 0 11 -17 14
-38 5 -28 14 -42 37 -55 16 -10 30 -23 30 -28 0 -6 5 -7 10 -4 6 3 10 2 10 -3
0 -5 29 -29 65 -52 36 -23 65 -47 65 -52 0 -5 5 -6 10 -3 6 3 10 2 10 -3 0 -5
29 -29 65 -52 36 -23 65 -47 65 -52 0 -5 5 -6 10 -3 6 3 10 2 10 -3 0 -5 29
-29 65 -52 36 -23 65 -47 65 -52 0 -5 5 -6 10 -3 6 3 10 2 10 -3 0 -5 29 -29
65 -52 36 -23 65 -47 65 -52 0 -5 5 -6 10 -3 6 3 10 2 10 -3 0 -5 29 -29 65
-52 63 -41 66 -42 80 -24 8 10 15 29 15 41 0 12 4 24 9 28 6 3 13 26 17 50 3
25 10 45 15 45 5 0 9 8 9 18 0 9 7 30 15 46 8 15 15 33 15 40 1 6 9 29 20 51
11 22 19 46 20 53 0 6 5 12 10 12 6 0 10 5 10 11 0 23 117 248 139 269 4 3 17
28 31 55 14 28 28 52 31 55 3 3 23 34 44 70 21 36 39 66 41 68 4 6 84 -51 84
-60 0 -5 5 -6 10 -3 6 3 10 2 10 -3 0 -5 30 -29 67 -53 37 -24 74 -51 82 -60
9 -9 45 -35 81 -59 36 -24 70 -49 75 -56 6 -6 46 -35 90 -65 44 -29 85 -58 90
-65 6 -6 39 -30 74 -54 35 -23 72 -51 83 -62 11 -11 25 -18 31 -15 7 2 204 55
440 118 l427 114 0 521 0 522 -24 15 c-48 32 -76 65 -76 90 0 22 6 27 50 38
l50 13 0 461 c0 426 -1 462 -17 476 -10 8 -22 17 -28 19 -27 14 -55 50 -55 73
0 22 6 27 50 38 l50 13 0 491 0 491 -22 19 c-13 11 -26 19 -30 17 -5 -1 -8 2
-8 7 0 5 -29 28 -65 51 -36 23 -65 47 -65 52 0 5 -4 6 -10 3 -5 -3 -10 -2 -10
3 0 5 -29 29 -65 52 -36 23 -65 47 -65 53 0 6 -3 8 -6 5 -3 -3 -17 5 -31 18
-14 13 -31 24 -37 23 -6 -1 -281 -74 -612 -163z"/>
</g>
</svg>
